<svg version="1.1" id="Layer_1" xmlns="http://www.w3.org/2000/svg" x="0" y="0" viewBox="0 0 933 864" xml:space="preserve"><style type="text/css">.st0{fill:#fff}.st1{fill:#265d90}.st2{opacity:.1}.st2,.st3{fill:#1d4a7e}</style><path class="st1" d="M901 469.46c-7.29 33.72-10.9 68.76-22.51 100.92-52.32 144.98-157.72 233.59-306.22 266.36-152.29 33.61-290.94-1.76-407.44-107.03C-54.28 531.72.72 185.98 269.54 63.29c215.83-98.5 474.16-12.78 584.91 194.43 23.4 43.78 37.88 90.55 42.91 140.1.61 6.02 2.4 11.92 3.64 17.87v53.77zM247.49 436.6c-.07 119.91 97.42 218.46 215.78 218.14 117.64-.32 218.61-100.34 219.02-216.97.42-118.49-98.8-220.74-214.34-220.91-120.98-.16-220.39 98.92-220.46 219.74z"/></svg>