<svg xmlns="http://www.w3.org/2000/svg" width="96.453" height="96.924" viewBox="0 0 96.453 96.924"><g id="Group_5" data-name="Group 5" transform="translate(-2.928 -2)" fill="#e35205"><path id="Path_28" data-name="Path 28" d="M170.535 103.686A13.072 13.072 0 0 0 169 99.815c-2.036-3.528-4.455-5.134-6.311-4.189l-.023.011-3.607 1.612-.24-.182a19.018 19.018 0 0 0-4.089-2.367l-.277-.117-.408-3.934c-.1-2.087-2.7-3.383-6.784-3.383s-6.675 1.293-6.784 3.374v.026l-.407 3.918-.277.117a19.006 19.006 0 0 0-4.086 2.366l-.24.182-3.6-1.608c-.793-.4-2.066-.559-3.757.907a13.052 13.052 0 0 0-2.584 3.267c-2.037 3.527-2.218 6.424-.474 7.56l3.233 2.341-.036.3a19.312 19.312 0 0 0 0 4.7l.037.3-3.235 2.343c-1.748 1.135-1.567 4.032.471 7.561a13.061 13.061 0 0 0 2.585 3.268c1.691 1.466 2.964 1.308 3.734.917l3.656-1.634.24.181a19.016 19.016 0 0 0 4.049 2.34l.277.117.412 3.986c.108 2.081 2.708 3.374 6.784 3.374s6.686-1.3 6.784-3.383v-.028l.41-3.949.277-.117a19.018 19.018 0 0 0 4.049-2.339l.24-.181 3.663 1.638c1.856.944 4.274-.661 6.311-4.189s2.22-6.438.462-7.568l-.024-.016-3.2-2.32.037-.3a19.342 19.342 0 0 0 0-4.7l-.036-.3 3.2-2.321c.754-.488 1.527-1.511 1.103-3.71zm-7.284 3.792a1.786 1.786 0 0 0-.7 1.792 15.759 15.759 0 0 1-.006 6.179 1.786 1.786 0 0 0 .7 1.8l3.857 2.794-.062.319a10.911 10.911 0 0 1-2.967 5.139l-.245.213-4.363-1.95a1.785 1.785 0 0 0-1.9.289 15.485 15.485 0 0 1-5.327 3.077 1.787 1.787 0 0 0-1.2 1.505l-.493 4.754-.308.105a10.923 10.923 0 0 1-5.933 0l-.308-.105-.493-4.753a1.787 1.787 0 0 0-1.2-1.505 15.493 15.493 0 0 1-5.328-3.077 1.785 1.785 0 0 0-1.9-.289l-4.364 1.949-.245-.214a10.914 10.914 0 0 1-2.966-5.138l-.062-.319 3.856-2.794a1.787 1.787 0 0 0 .7-1.795 15.758 15.758 0 0 1-.006-6.178 1.786 1.786 0 0 0-.7-1.792l-3.85-2.789.062-.319a10.922 10.922 0 0 1 2.966-5.139l.245-.214 4.334 1.936a1.784 1.784 0 0 0 1.907-.292 15.488 15.488 0 0 1 5.359-3.1 1.785 1.785 0 0 0 1.2-1.5l.489-4.71.307-.106a10.916 10.916 0 0 1 5.934 0l.307.105.489 4.711a1.785 1.785 0 0 0 1.205 1.505 15.491 15.491 0 0 1 5.359 3.1 1.785 1.785 0 0 0 1.907.292l4.332-1.936.245.214a10.918 10.918 0 0 1 2.967 5.138l.062.319z" transform="translate(-90.155 -63.566)"/><path id="Path_29" data-name="Path 29" d="M99.381 28.97A15.292 15.292 0 0 0 84.1 13.707H30.114A15.262 15.262 0 0 0 14.889 28.97v44.869l-8.4 7.472V28.419a22.577 22.577 0 0 1 6.793-16.176 23.041 23.041 0 0 1 16.282-6.68h42.757a11.57 11.57 0 0 1 6.943 2.249 1.786 1.786 0 0 0 2.492-.395 1.739 1.739 0 0 0-.372-2.458A15.117 15.117 0 0 0 72.32 2H29.564A26.558 26.558 0 0 0 2.928 28.419v56.949A1.84 1.84 0 0 0 4.053 87a1.885 1.885 0 0 0 1.982-.314l8.855-8.019v18.477a1.744 1.744 0 0 0 2.93 1.316l13.308-12.15c.344-.314.645-.6.914-.846l.156-.146a7.774 7.774 0 0 1 1.6-1.336 5.117 5.117 0 0 1 1.573-.075l.432.007c.176 0 .361.008.559.013.311.009.652.019 1.029.019H84.1a15.321 15.321 0 0 0 15.281-15.324zm-3.563 39.652A11.754 11.754 0 0 1 84.1 80.384H37.39c-.368 0-.7-.01-1.008-.019-.189-.005-.366-.011-.532-.013-3.263-.043-3.662.111-6.084 2.371-.117.109-.237.224-.363.346-.2.189-.407.392-.65.615l-10.3 9.425V28.97a11.665 11.665 0 0 1 11.662-11.7H84.1a11.724 11.724 0 0 1 11.721 11.7z"/><path id="Path_30" data-name="Path 30" d="M191.776 153.558a8.206 8.206 0 1 0 8.206 8.206 8.215 8.215 0 0 0-8.206-8.206zm0 12.848a4.643 4.643 0 1 1 4.643-4.643 4.648 4.648 0 0 1-4.643 4.643z" transform="translate(-134.67 -112.988)"/></g></svg>