<svg xmlns="http://www.w3.org/2000/svg" width="98.995" height="99.006" viewBox="0 0 98.995 99.006"><g id="Group_3" data-name="Group 3" transform="translate(-172.998 -48.607)" fill="#e35205"><path id="Path_9" data-name="Path 9" d="M260.878 58.282c1.251.132 2.5.308 3.753.37a1.657 1.657 0 0 0 1.252-.409 22.432 22.432 0 0 1 14.17-9.009c7.891-1.615 15.178-.163 21.475 5.029a18 18 0 0 1 7.024 14.522 17.674 17.674 0 0 1-5.735 12.7 1.82 1.82 0 0 0-.549 2.35c1.161 2.847 2.167 5.758 3.257 8.634.306.806.42 1.586-.309 2.178a1.759 1.759 0 0 1-2.126-.09 970.19 970.19 0 0 0-11.394-6.286 2.789 2.789 0 0 0-1.653-.3 27 27 0 0 1-8.707.06 1 1 0 0 0-.794.336c-5.172 6.95-12.255 9.825-20.72 9.715-1.218-.016-2.431-.317-3.651-.387a3.246 3.246 0 0 0-1.654.307c-3.845 2.078-7.664 4.2-11.485 6.328-.664.369-1.323.718-2.009.123a1.765 1.765 0 0 1-.366-2.176c1.147-3.032 2.248-6.082 3.41-9.108a1.178 1.178 0 0 0-.334-1.523 18.056 18.056 0 0 1 1.3-27.845 25.341 25.341 0 0 1 15.845-5.519zm-16.122 41.832c.558-.288.882-.445 1.2-.619 2.693-1.491 5.369-3.016 8.092-4.453a3.025 3.025 0 0 1 1.854-.289 22.67 22.67 0 0 0 13.99-1.453c4.764-2.136 8.371-5.489 10.033-10.553 1.986-6.051-.245-12.6-5.533-16.724a21.512 21.512 0 0 0-14.656-4.566A20.4 20.4 0 0 0 244.6 68.5a14.467 14.467 0 0 0-3.649 12.619 16.236 16.236 0 0 0 5.917 9.4 1.769 1.769 0 0 1 .585 2.264c-.901 2.339-1.736 4.706-2.698 7.331zm56.622-9.9c-.117-.4-.167-.614-.243-.82q-1.124-3.075-2.256-6.148c-.569-1.548-.407-1.73.77-2.9a24.421 24.421 0 0 0 3.88-4.477c3.836-6.39 1.971-14.721-4.2-19.545a22.7 22.7 0 0 0-27.99.355c-.977.805-1.843 1.746-2.85 2.711 5.511 1.91 9.902 4.984 12.751 9.91a16.963 16.963 0 0 1 .908 15.852c2.18 0 4.213.32 6.092-.082a7.682 7.682 0 0 1 6.065 1.2c2.234 1.394 4.595 2.578 7.072 3.944z" transform="translate(-51.878)"/><path id="Path_10" data-name="Path 10" d="M457.7 323.346c-7.931-3.672-9.667-10.974-8.062-16.318a13.2 13.2 0 0 1 25.5.821c1.374 5.9-1.357 12.462-8.151 15.439 1.095.158 2.085.263 3.06.447a18.493 18.493 0 0 1 15.056 18c.01 1.061.009 2.123.005 3.184-.006 1.581-.5 2.074-2.09 2.074h-41.183c-2.419 0-2.6-.212-2.639-2.68a23.447 23.447 0 0 1 1.052-8.623 18.549 18.549 0 0 1 16.846-12.3c.136-.007.267-.02.606-.044zm24.406 20.513c-.1-1.553-.1-3.011-.3-4.444a15.127 15.127 0 0 0-13.875-12.869c-3.6-.192-7.229-.226-10.834-.074a14.986 14.986 0 0 0-13.647 9.041 15.932 15.932 0 0 0-1.3 8.345zm-9.827-33.024a10.027 10.027 0 0 0-10.119-10.171 10.165 10.165 0 1 0 .248 20.327 10.119 10.119 0 0 0 9.875-10.156z" transform="translate(-213.123 -199.382)"/><path id="Path_11" data-name="Path 11" d="M187.059 362.789c-7.825-4.782-6.957-13.4-2.786-17.559a10.943 10.943 0 0 1 16.082.538c3.88 4.42 4.079 12.5-3.211 16.941 1.031.15 2 .217 2.94.439a13.688 13.688 0 0 1 10.723 13.434c.017 1.26.006 2.521 0 3.781-.006 1.713-.4 2.117-2.1 2.119q-7.214.008-14.427.007h-19.1c-1.725 0-2.183-.443-2.177-2.182.01-2.844-.147-5.693.866-8.451a13.827 13.827 0 0 1 12.332-9.015c.246-.013.493-.031.858-.052zm20.722 16.561v-2.606a10.711 10.711 0 0 0-10.849-10.924c-3.28-.007-6.561.042-9.841 0-6.428-.092-12.2 5.21-10.869 13.534zM200 353a7.928 7.928 0 1 0-8.082 7.851A8 8 0 0 0 200 353z" transform="translate(0 -234.876)"/><path id="Path_12" data-name="Path 12" d="M273.935 172.817a5.3 5.3 0 0 1 5.156 5.435 5.268 5.268 0 1 1-10.526-.437 5.242 5.242 0 0 1 5.37-4.998zm-.13 7.443a2.235 2.235 0 0 0 2.255-2.175 2.231 2.231 0 0 0-4.462-.047 2.237 2.237 0 0 0 2.202 2.222z" transform="translate(-76.512 -99.445)"/><path id="Path_13" data-name="Path 13" d="M384.379 178.07a5.261 5.261 0 0 1 10.523.045 5.262 5.262 0 1 1-10.523-.045zm5.253 2.221a2.269 2.269 0 0 0 2.234-2.19 2.309 2.309 0 0 0-2.2-2.235 2.216 2.216 0 0 0-2.27 2.236 2.264 2.264 0 0 0 2.237 2.189z" transform="translate(-169.239 -99.47)"/><path id="Path_14" data-name="Path 14" d="M331.615 172.82a5.264 5.264 0 1 1 .218 10.526 5.391 5.391 0 0 1-5.374-5.067 5.312 5.312 0 0 1 5.156-5.459zm.069 7.448a2.273 2.273 0 0 0 2.273-2.155 2.307 2.307 0 0 0-2.27-2.269 2.211 2.211 0 0 0-2.2 2.2 2.259 2.259 0 0 0 2.197 2.223z" transform="translate(-122.865 -99.447)"/><path id="Path_15" data-name="Path 15" d="M455.212 104.29h-8.951c-1.084-.029-1.832-.649-1.85-1.53-.019-.927.657-1.5 1.823-1.5q5.418-.013 10.836-.007h6.959c1.209 0 1.8.482 1.834 1.466.034 1.072-.5 1.561-1.808 1.568-2.945.013-5.894.003-8.843.003z" transform="translate(-217.306 -42.147)"/><path id="Path_16" data-name="Path 16" d="M475.628 135.172h6.661c1.225 0 1.783.479 1.791 1.491.008 1.032-.522 1.506-1.759 1.51q-6.711.017-13.421.008c-1.216 0-1.747-.495-1.736-1.539.011-1 .576-1.468 1.8-1.471q3.336-.005 6.664.001z" transform="translate(-235.519 -69.305)"/><path id="Path_17" data-name="Path 17" d="M489.144 172.078c-1.721 0-3.443.006-5.164 0-1.253-.005-1.783-.447-1.794-1.468s.547-1.515 1.749-1.517q5.214-.008 10.428 0c1.167 0 1.721.463 1.746 1.419.027 1.044-.509 1.558-1.7 1.569-1.754.016-3.509 0-5.263 0z" transform="translate(-247.546 -96.461)"/></g></svg>