<svg version="1.1" id="Layer_1" xmlns="http://www.w3.org/2000/svg" x="0" y="0" viewBox="0 0 1149 394" xml:space="preserve"><style type="text/css">.st0{fill:#fff}.st1{fill:#265d90}.st2{opacity:.1}.st2,.st3{fill:#1d4a7e}</style><path class="st0" d="M1111 217.5c-1.63 7.53-2.44 15.36-5.03 22.55-11.69 32.39-35.24 52.19-68.42 59.51-34.03 7.51-65-.39-91.03-23.91-48.96-44.23-36.67-121.48 23.39-148.89 48.22-22.01 105.94-2.86 130.68 43.44 5.23 9.78 8.46 20.23 9.59 31.3.14 1.34.54 2.66.81 3.99.01 4 .01 8 .01 12.01zm-146.01-7.34c-.02 26.79 21.77 48.81 48.21 48.74 26.28-.07 48.84-22.42 48.93-48.48.09-26.47-22.07-49.32-47.89-49.36-27.02-.03-49.23 22.1-49.25 49.1zM174.04 38.81c6.55 1.52 13.3 2.5 19.61 4.72 6.91 2.43 13.41 6 20.34 9.19 29.54-24.23 76.06-8.15 89.87 28.99-4.54.4-9.01.57-13.41 1.22-8.02 1.19-15.99 2.74-24.01 3.95-2.13.32-4.48.4-6.54-.14-21.02-5.46-41.98-6.41-62.05 2.99-29.33 13.73-47.86 36.24-53.35 68.67-.22 1.31-1.11 2.78-2.15 3.63-26.88 21.88-40.18 50.96-45.22 84.48-2.36 15.68-1.39 31.12 2.91 46.37.13.45.02.96.02 1.42-.31.11-.6.32-.74.25-19.17-10.4-35.61-23.81-46.05-43.36-10.73-20.08-9.32-40.63-1.37-61.21 7.15-18.51 18.48-33.42 37.01-41.86 4.05-1.84 8.41-2.99 12.21-4.3-1.38-9.45-3.27-18.75-3.98-28.14-1.32-17.58.65-34.84 12.45-48.88 12.64-15.04 29.2-24.02 48.78-27.11 1.47-.23 2.93-.58 4.39-.88h11.28z"/><path class="st0" d="M302.8 365.98c-30.2 0-60.41-.43-90.59.17-17.3.35-32.81-4.18-47.42-12.85-25.6-15.19-44.57-35.83-52.63-65.07-6.75-24.49-3.08-48.31 5.96-71.51 7.52-19.3 19.42-35.41 36.33-47.68 1.19-.87 2.26-2.7 2.36-4.15 2.46-36.3 33.86-67.17 70.2-69.03 11.14-.57 21.9 1.1 32.56 4.14 2.24.64 4.92.72 7.17.15 38.71-9.83 76.08-7.27 110.9 13.32 29.54 17.47 45.7 43.91 49.12 78.11.15 1.5 1.54 3.34 2.88 4.2 15.19 9.67 28.3 21.42 38.05 36.72 27.88 43.78 10.2 111.06-45.39 130.05-6.39 2.18-13.47 3.23-20.24 3.29-33.1.32-66.18.14-99.26.14zm86.53-149.82c.28-2.63.4-5.01.81-7.33 4.56-25.37-7.58-52.32-32.97-65.87-28.86-15.4-58.8-16.21-89.23-5.27-4.34 1.56-7.76 2-11.82-.39-2.96-1.75-6.41-2.81-9.77-3.73-20.94-5.75-36.85-.15-48.84 18.43-4.91 7.61-6.32 16.18-4.24 25.19.92 3.97 1.56 8 2.35 12.16-2.4.89-4.6 1.76-6.83 2.52-6.43 2.2-12.52 4.95-17.7 9.53-14.34 12.68-21.5 29.09-25.1 47.44-3.38 17.23-.76 33.35 9.05 48.01 10 14.94 24.03 24.92 40.57 31.49 2.95 1.17 6.32 1.82 9.5 1.83 65.28.1 130.57.13 195.85-.04 4.25-.01 8.76-1.02 12.71-2.63 29.34-11.96 37.66-47.87 26.39-70.56-8.41-16.94-22.41-27.84-39.1-35.76-3.81-1.82-7.75-3.36-11.63-5.02zm378.14 15.42c0-28.14.07-56.28-.09-84.42-.02-3.61 1.18-4.36 4.48-4.34 23.8.11 47.6-.21 71.4.14 21.84.32 42.37 5.42 59.95 19.23 2.94 2.31 6.81 4.59 7.93 7.71.98 2.74-1.18 6.67-2.13 10.02-9.02 31.63-3.55 60.77 15.26 87.51 2.01 2.85 2.2 4.97.71 8.01-11.77 23.97-31.65 37.18-57.16 42.33-9.37 1.89-19.09 2.58-28.67 2.75-22.29.39-44.59.05-66.89.19-3.61.02-4.92-.71-4.89-4.72.2-28.13.1-56.27.1-84.41zm48.16-42.97v89.14c13.53-.84 26.87-.68 39.87-2.72 15.76-2.47 26.32-12.06 28.92-28.35 1.17-7.34 1.36-14.97.94-22.41-1.04-18.5-10.7-29.73-28.55-33.67-5.22-1.15-10.63-1.71-15.98-1.91-8.35-.31-16.73-.08-25.2-.08zm-180.81-45.5v5.02c0 31.41-.13 62.82.12 94.22.05 5.91.89 12.03 2.61 17.67 4.97 16.24 16.82 20.03 29.95 19.6 21.73-.72 27.55-14.77 29.2-29.73.86-7.8.79-15.73.81-23.6.09-26.4.09-52.81-.04-79.21-.02-3.28.86-4.31 4.18-4.27 13.16.17 26.32.06 39.48.08 1.24 0 2.47.12 4.24.22v4.2c0 32.91.28 65.82-.09 98.73-.26 22.82-6.78 43.42-24.75 58.95-12.02 10.39-26.28 15.65-41.92 17.52-15.65 1.86-31 .66-45.79-5.03-24.92-9.6-39.26-28.05-44.19-53.92-1.23-6.46-1.62-13.16-1.66-19.75-.16-32.03-.01-64.07-.16-96.1-.02-3.72.86-4.97 4.75-4.9 12.9.23 25.82.08 38.73.1 1.35-.02 2.7.11 4.53.2z"/><path class="st0" d="M514.35 276.98h66.84c.12.89.27 1.48.27 2.07.02 12.76-.01 25.52.05 38.29.01 2.03-.27 3.32-2.77 3.32-30.7-.06-61.4-.06-92.11-.08-.35 0-.69-.21-1.36-.43 1.33-4.03 2.83-7.96 3.93-11.99 9.71-35.6 3.1-67.69-20.77-96.09-1.01-1.21-1.77-3.06-1.78-4.62-.12-20.27-.06-40.54-.1-60.81-.01-2.27.18-3.81 3.12-3.79 14.16.11 28.32.05 42.48.08.61 0 1.22.2 2.2.38v133.67zm-150.08-20.02v20.09c0 8.76-.08 17.52.05 26.27.03 2.27-.78 3.61-2.59 4.9-18.27 13.08-38.84 17.32-60.85 15.71-39.18-2.86-74.38-27.56-85.32-66.29-13.54-47.92 12.15-96.21 60.06-111.85 29.5-9.62 58.17-7.97 84.86 9.58 2.84 1.87 3.91 3.89 3.86 7.29-.2 13.51-.08 27.02-.08 40.53v4.35c-2.92-2.51-5.2-4.57-7.58-6.5-13.98-11.34-29.81-17.6-47.99-17.47-24.58.17-44.94 18.44-47.67 42.81-3.08 27.47 15.01 51.09 42.16 54.11 19.32 2.15 36.56-3.86 51.82-15.68 2.96-2.28 5.72-4.83 9.27-7.85z"/></svg>