<svg width="338" height="132" viewBox="0 0 338 132" version="1.1" xmlns="http://www.w3.org/2000/svg"><title>Cludo_logo_CMYK_strapline</title><g id="Page-1" stroke="none" stroke-width="1" fill="none" fill-rule="evenodd"><g id="Cludo_logo_CMYK_strapline"><path d="M273.7 48.8c-2.5 15.7 8.9 30.6 25.6 33.2 16.8 2.7 32.2-7.9 34.7-23.7 2.5-15.7-8.9-30.7-25.7-33.3-16.6-2.6-32.1 8.1-34.6 23.8zm15.3 2.4c1.3-8.1 9.1-14 17.3-12.7 8.2 1.3 13.9 9.4 12.6 17.5-1.3 8.1-9.2 13.9-17.4 12.6-8.2-1.3-13.9-8.9-12.5-17.4z" id="Shape" fill="#FFF" fill-rule="nonzero"/><path d="M248.4 46.9H242v27.6h6.5c13.3 0 15.4-6.6 15.4-14-.1-7.4-2.2-13.6-15.5-13.6z" id="Path"/><path d="M147.8 32.5h-15.1v21.1c6 6.7 8.9 14.6 8.4 23.1-.3 4.4-1.2 8.3-2.7 11.6h30.4V74.5h-21v-42z" id="Path" fill="#FFF" fill-rule="nonzero"/><path d="M270.3 48.2c.4-2.5 1.1-4.8 2-7-4.9-5.4-12.6-8.7-23-8.7h-22.5v55.8h22.5c14.4 0 23.5-6 27.4-15.6-5.2-6.8-7.8-15.5-6.4-24.5zm-21.9 26.3h-6.5V46.9h6.4c13.3 0 15.5 6.2 15.5 13.6 0 7.4-2.1 14-15.4 14z" id="Shape" fill="#FFF" fill-rule="nonzero"/><path d="M204.9 62.6c0 9.6-3.9 12.6-9.8 12.6s-9.8-3-9.8-12.6V32.5h-15.1v31.8c0 16.9 11.4 24.8 24.9 24.8 13.4 0 24.9-7.9 24.9-24.8V32.5h-15.1v30.1zm-187.3.1C20.2 49.4 26.9 42 32 38.1c.8-6.7 4.4-15.1 14.1-20.8 3.9-2.3 8.3-3.5 13.1-3.5 3.9 0 7.4.8 10 1.6 3-.8 7.5-1.7 12.9-1.8-1-2.5-4.9-10.5-14.1-12.3-9.4-1.9-14.3 3.3-14.3 3.3S38.6-7 22.8 6.8c-9.9 8.6-4.2 26.1-4.2 26.1s-12.8 1.3-17 18.7c-4 16.7 12.1 26.3 16.7 28.7-1.5-5.1-2-11-.7-17.6zm35.5-2.1c0 16.7 13.7 28.8 30.6 28.8 6.4 0 12.1-1.8 17.2-5.7V68c-4.7 4.8-10.5 7.7-17.2 7.7-8.4 0-15.3-6.4-15.3-15.1 0-8.8 6.8-15.2 15.3-15.2 6.7 0 12.5 2.9 17.2 7.7V37.4c-5.1-3.9-10.9-5.7-17.2-5.7-16.9 0-30.6 12.2-30.6 28.9z" id="Path" fill="#FFF" fill-rule="nonzero"/><path d="M112.2 102.4H49.8c-.3 0-3.4-.2-6.6-1.6-12.4-5.1-25.5-17.9-21.8-37.4C24 50 31.2 43.3 35.8 40.3 36 35.1 38 26.6 48 20.6c3.3-1.9 7-2.9 11.1-2.9s7.7 1 9.9 1.8c2.8-.8 7.8-2 13.9-2 6.7 0 13.1 1.4 18.9 4.2 14 6.7 18.1 18.9 18.5 27 6.1 3.6 17.7 12.4 16.8 27.8-.9 14.6-10.7 22.7-18.9 25.2-2.5.6-5.3.7-6 .7zM50.4 91.1h61.8c.7 0 2-.1 2.8-.3 1.7-.5 10.3-3.7 10.9-15 .7-12.4-13.3-18.5-13.4-18.5l-3.9-1.7.5-4.2c.1-.5 1.3-13.1-12-19.4-4.3-2.1-9-3.1-14-3.1-6.9 0-11.9 2-11.9 2l-2.3 1-2.3-1.1s-3.4-1.6-7.3-1.6c-2.1 0-3.9.5-5.4 1.3-8.1 4.8-6.7 11.9-6.7 12l1 4.7-4.5 1.7c-.3.1-8.4 3.6-11 16.8-3.2 16.4 11.9 23.5 15 24.8 1 .4 2.3.5 2.7.6z" id="Shape" fill="#FFF" fill-rule="nonzero"/><path d="M11.5 131.6c-2.1 0-3.7-.6-4.8-1.9-1.1-1.3-1.7-3.1-1.7-5.4 0-2.4.6-4.2 1.7-5.5 1.1-1.3 2.8-2 4.9-2 .7 0 1.4.1 2.1.2.7.1 1.2.3 1.6.5l-.7 1.8c-.5-.2-1-.3-1.6-.5-.6-.2-1.1-.2-1.5-.2-2.9 0-4.4 1.9-4.4 5.6 0 1.8.4 3.1 1.1 4 .7.9 1.8 1.4 3.1 1.4 1.2 0 2.4-.3 3.7-.8v1.9c-.8.6-2 .9-3.5.9zm8.5-.3h-2.2V111H20zm6-14.3v9.3c0 1.2.3 2 .8 2.6.5.6 1.4.9 2.5.9 1.5 0 2.6-.4 3.3-1.2.7-.8 1-2.2 1-4V117h2.2v14.3H34l-.3-1.9h-.1c-.4.7-1.1 1.2-1.8 1.6-.8.4-1.7.6-2.7.6-1.7 0-3-.4-3.9-1.2-.9-.8-1.3-2.1-1.3-4V117H26z" id="Path" fill="#FFF" fill-rule="nonzero"/><path d="M45.8 131.6c-2.1 0-3.8-.6-5-1.9-1.2-1.3-1.8-3.1-1.8-5.4 0-2.3.6-4.1 1.7-5.5 1.1-1.4 2.7-2 4.6-2 1.8 0 3.2.6 4.2 1.8 1 1.2 1.6 2.7 1.6 4.7v1.4h-9.8c0 1.7.5 3 1.3 3.8.8.9 1.9 1.3 3.4 1.3s3.1-.3 4.6-1v1.9c-.8.3-1.5.6-2.2.7-.9.1-1.7.2-2.6.2zm-.6-13c-1.1 0-2.1.4-2.7 1.1-.7.7-1.1 1.8-1.2 3.1h7.5c0-1.4-.3-2.4-.9-3.1-.6-.7-1.6-1.1-2.7-1.1zm18.6 10.8h-.1c-1 1.5-2.5 2.2-4.5 2.2-1.9 0-3.3-.6-4.4-1.9-1.1-1.3-1.6-3.1-1.6-5.4 0-2.4.5-4.2 1.6-5.5 1.1-1.3 2.5-2 4.4-2 1.9 0 3.4.7 4.5 2.1h.2l-.1-1-.1-1V111h2.2v20.3H64l-.2-1.9zm-4.4.4c1.5 0 2.5-.4 3.2-1.2.7-.8 1-2.1 1-3.9v-.5c0-2-.3-3.5-1-4.3-.7-.9-1.7-1.3-3.2-1.3-1.3 0-2.2.5-2.9 1.5-.7 1-1 2.4-1 4.2 0 1.8.3 3.2 1 4.1.7.9 1.6 1.4 2.9 1.4z" id="Shape" fill="#FFF" fill-rule="nonzero"/><path id="Path" fill="#FFF" fill-rule="nonzero" d="M68.6 125.2v-2H75v2z"/><path d="M77.5 113.2c0-.5.1-.9.4-1.1.2-.2.5-.3.9-.3.3 0 .6.1.9.4.3.2.4.6.4 1.1 0 .5-.1.8-.4 1.1-.3.2-.6.4-.9.4-.4 0-.7-.1-.9-.4-.3-.4-.4-.8-.4-1.2zm2.4 18.1h-2.2V117h2.2v14.3z" id="Shape" fill="#FFF" fill-rule="nonzero"/><path d="M93.6 131.3v-9.2c0-1.2-.3-2-.8-2.6-.5-.6-1.4-.9-2.5-.9-1.5 0-2.6.4-3.3 1.2-.7.8-1 2.1-1 4v7.5h-2.2V117h1.8l.4 2h.1c.4-.7 1.1-1.2 1.9-1.6.8-.4 1.7-.6 2.7-.6 1.7 0 3 .4 3.9 1.2.9.8 1.3 2.2 1.3 4v9.3h-2.3zm23.3-5c0 1.7-.6 3-1.8 3.9-1.2.9-2.9 1.4-5 1.4-2.3 0-4-.3-5.2-.9v-2.1c.8.3 1.6.6 2.6.8.9.2 1.8.3 2.7.3 1.5 0 2.6-.3 3.3-.8.7-.6 1.1-1.3 1.1-2.3 0-.7-.1-1.2-.4-1.6-.3-.4-.7-.8-1.3-1.2-.6-.4-1.6-.8-2.8-1.2-1.8-.6-3-1.4-3.8-2.3-.8-.9-1.1-2-1.1-3.4 0-1.5.6-2.6 1.7-3.5 1.1-.9 2.6-1.3 4.4-1.3 1.9 0 3.6.3 5.2 1l-.7 1.9c-1.6-.7-3.1-1-4.6-1-1.2 0-2.1.3-2.8.8-.7.5-1 1.2-1 2.1 0 .7.1 1.2.4 1.6.2.4.7.8 1.2 1.2.6.4 1.5.7 2.7 1.2 2 .7 3.4 1.5 4.1 2.3.8.7 1.1 1.7 1.1 3.1z" id="Path" fill="#FFF" fill-rule="nonzero"/><path d="M128.7 131.3l-.4-2h-.1c-.7.9-1.4 1.5-2.1 1.8-.7.3-1.6.5-2.7.5-1.4 0-2.5-.4-3.3-1.1-.8-.7-1.2-1.8-1.2-3.1 0-2.9 2.3-4.4 6.9-4.5l2.4-.1v-.9c0-1.1-.2-1.9-.7-2.5-.5-.6-1.3-.8-2.3-.8-1.2 0-2.5.4-4 1.1l-.7-1.7c.7-.4 1.5-.7 2.3-.9.8-.2 1.7-.3 2.5-.3 1.7 0 3 .4 3.8 1.1.8.7 1.2 2 1.2 3.6v9.8h-1.6zm-4.9-1.5c1.3 0 2.4-.4 3.2-1.1.8-.7 1.2-1.8 1.2-3.1v-1.3l-2.2.1c-1.7.1-3 .3-3.7.8-.8.5-1.1 1.2-1.1 2.2 0 .8.2 1.4.7 1.8.4.4 1 .6 1.9.6z" id="Shape" fill="#FFF" fill-rule="nonzero"/><path id="Path" fill="#FFF" fill-rule="nonzero" d="M136.2 131.3H134V111h2.2z"/><path d="M146.2 131.6c-2.1 0-3.8-.6-5-1.9-1.2-1.3-1.8-3.1-1.8-5.4 0-2.3.6-4.1 1.7-5.5 1.1-1.4 2.7-2 4.6-2 1.8 0 3.2.6 4.2 1.8 1 1.2 1.6 2.7 1.6 4.7v1.4h-9.8c0 1.7.5 3 1.3 3.8.8.9 1.9 1.3 3.4 1.3s3.1-.3 4.6-1v1.9c-.8.3-1.5.6-2.2.7-.8.1-1.6.2-2.6.2zm-.6-13c-1.1 0-2.1.4-2.7 1.1-.7.7-1.1 1.8-1.2 3.1h7.5c0-1.4-.3-2.4-.9-3.1-.6-.7-1.6-1.1-2.7-1.1z" id="Shape" fill="#FFF" fill-rule="nonzero"/><path d="M163.7 127.4c0 1.3-.5 2.4-1.5 3.1-1 .7-2.4 1.1-4.2 1.1-1.9 0-3.4-.3-4.4-.9v-2c.7.3 1.4.6 2.2.8.8.2 1.5.3 2.3.3 1.1 0 2-.2 2.6-.5.6-.4.9-.9.9-1.6 0-.6-.2-1-.7-1.4-.5-.4-1.4-.9-2.8-1.4-1.3-.5-2.3-.9-2.8-1.3-.6-.4-1-.8-1.3-1.3-.3-.5-.4-1-.4-1.7 0-1.2.5-2.1 1.4-2.8.9-.7 2.2-1 3.9-1 1.5 0 3 .3 4.5.9l-.8 1.8c-1.4-.6-2.7-.9-3.9-.9-1 0-1.8.2-2.3.5-.5.3-.8.8-.8 1.3 0 .4.1.7.3 1 .2.3.5.5.9.8.4.2 1.3.6 2.5 1.1 1.7.6 2.8 1.2 3.4 1.9.6.7 1 1.3 1 2.2zm9.3-8.7h-3.6v12.6h-2.2v-12.6h-2.6v-1l2.6-.8v-.8c0-3.5 1.5-5.3 4.6-5.3.8 0 1.6.2 2.7.5l-.6 1.7c-.8-.3-1.5-.4-2.1-.4-.8 0-1.4.3-1.8.8-.4.5-.6 1.4-.6 2.6v.9h3.6v1.8z" id="Path" fill="#FFF" fill-rule="nonzero"/><path d="M187.3 124.2c0 2.3-.6 4.1-1.8 5.5-1.2 1.4-2.8 2-4.9 2-1.3 0-2.4-.3-3.4-.9-1-.6-1.8-1.5-2.3-2.6-.5-1.1-.8-2.4-.8-3.9 0-2.3.6-4.1 1.7-5.4 1.2-1.3 2.8-1.9 4.9-1.9 2 0 3.6.7 4.8 2 1.2 1.1 1.8 2.9 1.8 5.2zm-10.9 0c0 1.8.4 3.2 1.1 4.2.7 1 1.8 1.4 3.2 1.4 1.4 0 2.5-.5 3.2-1.4.7-1 1.1-2.3 1.1-4.2 0-1.8-.4-3.2-1.1-4.1-.7-.9-1.8-1.4-3.3-1.4-1.4 0-2.5.5-3.2 1.4-.6.8-1 2.2-1 4.1z" id="Shape" fill="#FFF" fill-rule="nonzero"/><path d="M197 116.8c.6 0 1.2.1 1.7.2l-.3 2c-.6-.1-1.1-.2-1.6-.2-1.2 0-2.1.5-3 1.4-.8.9-1.2 2.1-1.2 3.5v7.7h-2.2V117h1.8l.2 2.6h.1c.5-.9 1.2-1.6 1.9-2.2.8-.4 1.7-.6 2.6-.6zm9.4 14.8c-2.1 0-3.7-.6-4.8-1.9-1.1-1.3-1.7-3.1-1.7-5.4 0-2.4.6-4.2 1.7-5.5 1.1-1.3 2.8-2 4.9-2 .7 0 1.4.1 2.1.2.7.1 1.2.3 1.6.5l-.7 1.8c-.5-.2-1-.3-1.6-.5-.6-.1-1.1-.2-1.5-.2-2.9 0-4.4 1.9-4.4 5.6 0 1.8.4 3.1 1.1 4 .7.9 1.8 1.4 3.1 1.4 1.2 0 2.4-.3 3.7-.8v1.9c-.9.6-2.1.9-3.5.9z" id="Path" fill="#FFF" fill-rule="nonzero"/><path d="M218.8 131.6c-2.1 0-3.8-.6-5-1.9-1.2-1.3-1.8-3.1-1.8-5.4 0-2.3.6-4.1 1.7-5.5 1.1-1.4 2.7-2 4.6-2 1.8 0 3.2.6 4.2 1.8 1 1.2 1.6 2.7 1.6 4.7v1.4h-9.8c0 1.7.5 3 1.3 3.8.8.9 1.9 1.3 3.4 1.3s3.1-.3 4.6-1v1.9c-.8.3-1.5.6-2.2.7-.9.1-1.7.2-2.6.2zm-.6-13c-1.1 0-2.1.4-2.7 1.1-.7.7-1.1 1.8-1.2 3.1h7.5c0-1.4-.3-2.4-.9-3.1-.6-.7-1.6-1.1-2.7-1.1z" id="Shape" fill="#FFF" fill-rule="nonzero"/><path d="M242.5 127.4c0 1.3-.5 2.4-1.5 3.1-1 .7-2.4 1.1-4.2 1.1-1.9 0-3.4-.3-4.4-.9v-2c.7.3 1.4.6 2.2.8.8.2 1.5.3 2.3.3 1.1 0 2-.2 2.6-.5.6-.4.9-.9.9-1.6 0-.6-.2-1-.7-1.4-.5-.4-1.4-.9-2.8-1.4-1.3-.5-2.3-.9-2.8-1.3-.6-.4-1-.8-1.3-1.3-.3-.5-.4-1-.4-1.7 0-1.2.5-2.1 1.4-2.8.9-.7 2.2-1 3.9-1 1.5 0 3 .3 4.5.9l-.8 1.8c-1.4-.6-2.7-.9-3.9-.9-1 0-1.8.2-2.3.5-.5.3-.8.8-.8 1.3 0 .4.1.7.3 1 .2.3.5.5.9.8.4.2 1.3.6 2.5 1.1 1.7.6 2.8 1.2 3.4 1.9.7.5 1 1.3 1 2.2z" id="Path" fill="#FFF" fill-rule="nonzero"/><path d="M257.7 124.2c0 2.3-.6 4.1-1.8 5.5-1.2 1.3-2.8 2-4.9 2-1.3 0-2.4-.3-3.4-.9-1-.6-1.8-1.5-2.3-2.6-.5-1.1-.8-2.4-.8-3.9 0-2.3.6-4.1 1.7-5.4 1.2-1.3 2.8-1.9 4.8-1.9s3.6.7 4.8 2c1.3 1.1 1.9 2.9 1.9 5.2zm-10.9 0c0 1.8.4 3.2 1.1 4.2.7 1 1.8 1.4 3.2 1.4 1.4 0 2.5-.5 3.2-1.4.7-.9 1.1-2.3 1.1-4.2 0-1.8-.4-3.2-1.1-4.1-.7-.9-1.8-1.4-3.3-1.4-1.4 0-2.5.5-3.2 1.4-.6.8-1 2.2-1 4.1z" id="Shape" fill="#FFF" fill-rule="nonzero"/><path id="Path" fill="#FFF" fill-rule="nonzero" d="M263 131.3h-2.2V111h2.2zm6-14.3v9.3c0 1.2.3 2 .8 2.6.5.6 1.4.9 2.5.9 1.5 0 2.6-.4 3.3-1.2.7-.8 1-2.2 1-4V117h2.2v14.3H277l-.3-1.9h-.1c-.4.7-1.1 1.2-1.8 1.6-.8.4-1.7.6-2.7.6-1.7 0-3-.4-3.9-1.2-.9-.8-1.3-2.1-1.3-4V117h2.1zm18.3 12.8c.4 0 .8 0 1.1-.1.3-.1.6-.1.8-.2v1.7c-.2.1-.6.2-1 .3-.5.1-.9.1-1.2.1-2.8 0-4.1-1.5-4.1-4.4v-8.5h-2v-1l2-.9.9-3.1h1.3v3.3h4.1v1.7H285v8.4c0 .9.2 1.5.6 2 .5.5 1 .7 1.7.7z"/><path d="M291.3 113.2c0-.5.1-.9.4-1.1.2-.2.5-.3.9-.3.3 0 .6.1.9.4.3.2.4.6.4 1.1 0 .5-.1.8-.4 1.1-.3.2-.6.4-.9.4-.4 0-.7-.1-.9-.4-.3-.4-.4-.8-.4-1.2zm2.3 18.1h-2.2V117h2.2v14.3zm16.3-7.1c0 2.3-.6 4.1-1.8 5.5-1.2 1.3-2.8 2-4.9 2-1.3 0-2.4-.3-3.4-.9-1-.6-1.8-1.5-2.3-2.6-.5-1.1-.8-2.4-.8-3.9 0-2.3.6-4.1 1.7-5.4 1.2-1.3 2.8-1.9 4.8-1.9s3.6.7 4.8 2c1.3 1.1 1.9 2.9 1.9 5.2zm-10.9 0c0 1.8.4 3.2 1.1 4.2.7 1 1.8 1.4 3.2 1.4 1.4 0 2.5-.5 3.2-1.4.7-.9 1.1-2.3 1.1-4.2 0-1.8-.4-3.2-1.1-4.1-.7-.9-1.8-1.4-3.3-1.4-1.4 0-2.5.5-3.2 1.4-.6.8-1 2.2-1 4.1z" id="Shape" fill="#FFF" fill-rule="nonzero"/><path d="M322.8 131.3v-9.2c0-1.2-.3-2-.8-2.6-.5-.6-1.4-.9-2.5-.9-1.5 0-2.6.4-3.3 1.2-.7.8-1 2.1-1 4v7.5H313V117h1.8l.4 2h.1c.4-.7 1.1-1.2 1.9-1.6.8-.4 1.7-.6 2.7-.6 1.7 0 3 .4 3.9 1.2.9.8 1.3 2.2 1.3 4v9.3h-2.3zm15.2-3.9c0 1.3-.5 2.4-1.5 3.1-1 .7-2.4 1.1-4.2 1.1-1.9 0-3.4-.3-4.4-.9v-2c.7.3 1.4.6 2.2.8.8.2 1.5.3 2.3.3 1.1 0 2-.2 2.6-.5.6-.4.9-.9.9-1.6 0-.6-.2-1-.7-1.4-.5-.4-1.4-.9-2.8-1.4-1.3-.5-2.3-.9-2.8-1.3-.6-.4-1-.8-1.3-1.3-.3-.5-.4-1-.4-1.7 0-1.2.5-2.1 1.4-2.8.9-.7 2.2-1 3.9-1 1.5 0 3 .3 4.5.9l-.8 1.8c-1.4-.6-2.7-.9-3.9-.9-1 0-1.8.2-2.3.5-.5.3-.8.8-.8 1.3 0 .4.1.7.3 1 .2.3.5.5.9.8.4.2 1.3.6 2.5 1.1 1.7.6 2.8 1.2 3.4 1.9.7.5 1 1.3 1 2.2z" id="Path" fill="#FFF" fill-rule="nonzero"/></g></g></svg>