<?xml version="1.0" encoding="utf-8"?>
<!-- Generator: Adobe Illustrator 24.0.1, SVG Export Plug-In . SVG Version: 6.00 Build 0)  -->
<svg version="1.1" id="Layer_1" xmlns="http://www.w3.org/2000/svg" xmlns:xlink="http://www.w3.org/1999/xlink" x="0px" y="0px"
	 viewBox="0 0 933 864" style="enable-background:new 0 0 933 864;" xml:space="preserve">
<style type="text/css">
	.st0{fill:#FFFFFF;}
	.st1{fill:#265D90;}
	.st2{opacity:0.1;fill:#1D4A7E;}
	.st3{fill:#1D4A7E;}
</style>
<path class="st1" d="M901,469.46c-7.29,33.72-10.9,68.76-22.51,100.92c-52.32,144.98-157.72,233.59-306.22,266.36
	c-152.29,33.61-290.94-1.76-407.44-107.03C-54.28,531.72,0.72,185.98,269.54,63.29c215.83-98.5,474.16-12.78,584.91,194.43
	c23.4,43.78,37.88,90.55,42.91,140.1c0.61,6.02,2.4,11.92,3.64,17.87C901,433.61,901,451.53,901,469.46z M247.49,436.6
	c-0.07,119.91,97.42,218.46,215.78,218.14c117.64-0.32,218.61-100.34,219.02-216.97c0.42-118.49-98.8-220.74-214.34-220.91
	C346.97,216.7,247.56,315.78,247.49,436.6z"/>
</svg>
