<svg xmlns="http://www.w3.org/2000/svg" width="98.995" height="99.006" viewBox="0 0 98.995 99.006">
  <g id="Group_3" data-name="Group 3" transform="translate(-172.998 -48.607)">
    <path id="Path_9" data-name="Path 9" d="M260.878,58.282c1.251.132,2.5.308,3.753.37a1.657,1.657,0,0,0,1.252-.409,22.432,22.432,0,0,1,14.17-9.009c7.891-1.615,15.178-.163,21.475,5.029a18,18,0,0,1,7.024,14.522,17.674,17.674,0,0,1-5.735,12.7,1.82,1.82,0,0,0-.549,2.35c1.161,2.847,2.167,5.758,3.257,8.634.306.806.42,1.586-.309,2.178a1.759,1.759,0,0,1-2.126-.09c-3.788-2.114-7.578-4.223-11.394-6.286a2.789,2.789,0,0,0-1.653-.3,27,27,0,0,1-8.707.06,1,1,0,0,0-.794.336c-5.172,6.95-12.255,9.825-20.72,9.715-1.218-.016-2.431-.317-3.651-.387a3.246,3.246,0,0,0-1.654.307c-3.845,2.078-7.664,4.2-11.485,6.328-.664.369-1.323.718-2.009.123a1.765,1.765,0,0,1-.366-2.176c1.147-3.032,2.248-6.082,3.41-9.108a1.178,1.178,0,0,0-.334-1.523,18.056,18.056,0,0,1,1.3-27.845A25.341,25.341,0,0,1,260.878,58.282Zm-16.122,41.832c.558-.288.882-.445,1.2-.619,2.693-1.491,5.369-3.016,8.092-4.453a3.025,3.025,0,0,1,1.854-.289A22.67,22.67,0,0,0,269.892,93.3c4.764-2.136,8.371-5.489,10.033-10.553,1.986-6.051-.245-12.6-5.533-16.724a21.512,21.512,0,0,0-14.656-4.566A20.4,20.4,0,0,0,244.6,68.5a14.467,14.467,0,0,0-3.649,12.619,16.236,16.236,0,0,0,5.917,9.4,1.769,1.769,0,0,1,.585,2.264C246.552,95.122,245.717,97.489,244.755,100.114Zm56.622-9.9c-.117-.4-.167-.614-.243-.82q-1.124-3.075-2.256-6.148c-.569-1.548-.407-1.73.77-2.9a24.421,24.421,0,0,0,3.88-4.477c3.836-6.39,1.971-14.721-4.2-19.545a22.7,22.7,0,0,0-27.99.355c-.977.805-1.843,1.746-2.85,2.711C274,61.3,278.391,64.374,281.24,69.3a16.963,16.963,0,0,1,.908,15.852c2.18,0,4.213.32,6.092-.082a7.682,7.682,0,0,1,6.065,1.2C296.539,87.664,298.9,88.848,301.377,90.214Z" transform="translate(-51.878 0)" fill="#e35205"/>
    <path id="Path_10" data-name="Path 10" d="M457.7,323.346c-7.931-3.672-9.667-10.974-8.062-16.318a13.2,13.2,0,0,1,25.5.821c1.374,5.9-1.357,12.462-8.151,15.439,1.095.158,2.085.263,3.06.447a18.493,18.493,0,0,1,15.056,18c.01,1.061.009,2.123.005,3.184-.006,1.581-.5,2.074-2.09,2.074q-12.037,0-24.073,0l-17.11,0c-2.419,0-2.6-.212-2.639-2.68a23.447,23.447,0,0,1,1.052-8.623,18.549,18.549,0,0,1,16.846-12.3C457.23,323.383,457.361,323.37,457.7,323.346Zm24.406,20.513c-.1-1.553-.1-3.011-.3-4.444a15.127,15.127,0,0,0-13.875-12.869c-3.6-.192-7.229-.226-10.834-.074a14.986,14.986,0,0,0-13.647,9.041,15.932,15.932,0,0,0-1.3,8.345Zm-9.827-33.024a10.027,10.027,0,0,0-10.119-10.171,10.165,10.165,0,1,0,.248,20.327A10.119,10.119,0,0,0,472.283,310.835Z" transform="translate(-213.123 -199.382)" fill="#e35205"/>
    <path id="Path_11" data-name="Path 11" d="M187.059,362.789c-7.825-4.782-6.957-13.4-2.786-17.559a10.943,10.943,0,0,1,16.082.538c3.88,4.42,4.079,12.5-3.211,16.941,1.031.15,2,.217,2.94.439a13.688,13.688,0,0,1,10.723,13.434c.017,1.26.006,2.521,0,3.781-.006,1.713-.4,2.117-2.1,2.119q-7.214.008-14.427.007-9.552,0-19.1,0c-1.725,0-2.183-.443-2.177-2.182.01-2.844-.147-5.693.866-8.451a13.827,13.827,0,0,1,12.332-9.015C186.447,362.828,186.694,362.81,187.059,362.789Zm20.722,16.561c0-.9,0-1.754,0-2.606a10.711,10.711,0,0,0-10.849-10.924c-3.28-.007-6.561.042-9.841,0-6.428-.092-12.2,5.21-10.869,13.534ZM200,353a7.928,7.928,0,1,0-8.082,7.851A8,8,0,0,0,200,353Z" transform="translate(0 -234.876)" fill="#e35205"/>
    <path id="Path_12" data-name="Path 12" d="M273.935,172.817a5.3,5.3,0,0,1,5.156,5.435,5.268,5.268,0,1,1-10.526-.437A5.242,5.242,0,0,1,273.935,172.817Zm-.13,7.443a2.235,2.235,0,0,0,2.255-2.175,2.231,2.231,0,0,0-4.462-.047A2.237,2.237,0,0,0,273.8,180.26Z" transform="translate(-76.512 -99.445)" fill="#e35205"/>
    <path id="Path_13" data-name="Path 13" d="M384.379,178.07a5.261,5.261,0,0,1,10.523.045,5.262,5.262,0,1,1-10.523-.045Zm5.253,2.221a2.269,2.269,0,0,0,2.234-2.19,2.309,2.309,0,0,0-2.2-2.235,2.216,2.216,0,0,0-2.27,2.236A2.264,2.264,0,0,0,389.633,180.291Z" transform="translate(-169.239 -99.47)" fill="#e35205"/>
    <path id="Path_14" data-name="Path 14" d="M331.615,172.82a5.264,5.264,0,1,1,.218,10.526,5.391,5.391,0,0,1-5.374-5.067A5.312,5.312,0,0,1,331.615,172.82Zm.069,7.448a2.273,2.273,0,0,0,2.273-2.155,2.307,2.307,0,0,0-2.27-2.269,2.211,2.211,0,0,0-2.2,2.2A2.259,2.259,0,0,0,331.684,180.267Z" transform="translate(-122.865 -99.447)" fill="#e35205"/>
    <path id="Path_15" data-name="Path 15" d="M455.212,104.29h-8.251c-.232,0-.464,0-.7,0-1.084-.029-1.832-.649-1.85-1.53-.019-.927.657-1.5,1.823-1.5q5.418-.013,10.836-.007,3.479,0,6.959,0c1.209,0,1.8.482,1.834,1.466.034,1.072-.5,1.561-1.808,1.568C461.11,104.3,458.161,104.29,455.212,104.29Z" transform="translate(-217.306 -42.147)" fill="#e35205"/>
    <path id="Path_16" data-name="Path 16" d="M475.628,135.172c2.221,0,4.441,0,6.661,0,1.225,0,1.783.479,1.791,1.491.008,1.032-.522,1.506-1.759,1.51q-6.711.017-13.421.008c-1.216,0-1.747-.495-1.736-1.539.011-1,.576-1.468,1.8-1.471Q472.3,135.166,475.628,135.172Z" transform="translate(-235.519 -69.305)" fill="#e35205"/>
    <path id="Path_17" data-name="Path 17" d="M489.144,172.078c-1.721,0-3.443.006-5.164,0-1.253-.005-1.783-.447-1.794-1.468s.547-1.515,1.749-1.517q5.214-.008,10.428,0c1.167,0,1.721.463,1.746,1.419.027,1.044-.509,1.558-1.7,1.569-1.754.016-3.509,0-5.263,0Z" transform="translate(-247.546 -96.461)" fill="#e35205"/>
  </g>
</svg>
