<svg xmlns="http://www.w3.org/2000/svg" width="89.285" height="100.414" viewBox="0 0 89.285 100.414">
  <g id="Group_4" data-name="Group 4" transform="translate(-325.131 -187.929)">
    <path id="Path_25" data-name="Path 25" d="M392.963,308.741c-.169-15.416,12.868-28.489,28.333-28.895a29.16,29.16,0,1,1,.875,58.311C406.06,338.292,393.144,325.284,392.963,308.741Zm54.582.5a25.644,25.644,0,0,0-25.505-25.925c-13.916-.023-25.652,11.437-25.672,25.066-.021,14.729,11.238,26.26,25.63,26.252A25.557,25.557,0,0,0,447.545,309.246Z" transform="translate(-36.765 -49.815)" fill="#e35205"/>
    <path id="Path_26" data-name="Path 26" d="M432.114,345.5c-3.484-3.623-6.829-7.139-10.224-10.607-.986-1.007-1.143-1.953-.1-2.921s1.824-.407,2.708.424c2.645,2.487,5.378,4.882,8.271,7.488,3.76-3.557,7.989-7.549,12.208-11.551,1.6-1.514,3.212-3.009,4.741-4.588.969-1,1.919-1.282,2.885-.183.905,1.031.68,1.97-.353,2.936C445.662,332.665,439.119,338.88,432.114,345.5Z" transform="translate(-52.004 -73.133)" fill="#e35205"/>
    <rect id="Rectangle_13" data-name="Rectangle 13" width="43.563" height="2.804" rx="1.402" transform="translate(337.488 209.583)" fill="#e35205"/>
    <rect id="Rectangle_14" data-name="Rectangle 14" width="43.563" height="2.804" rx="1.402" transform="translate(337.488 223.65)" fill="#e35205"/>
    <rect id="Rectangle_15" data-name="Rectangle 15" width="21.493" height="2.804" rx="1.402" transform="translate(337.488 238.701)" fill="#e35205"/>
    <rect id="Rectangle_16" data-name="Rectangle 16" width="13.704" height="2.804" rx="1.402" transform="translate(337.412 252.465)" fill="#e35205"/>
    <path id="Path_27" data-name="Path 27" d="M351.776,263.471h-19.3a3.687,3.687,0,0,1-3.683-3.683V195.275a3.687,3.687,0,0,1,3.683-3.683h57.794a3.687,3.687,0,0,1,3.683,3.683v30.4a33.694,33.694,0,0,1,3.664,1.18V195.275a7.355,7.355,0,0,0-7.346-7.346H332.477a7.355,7.355,0,0,0-7.346,7.346v64.513a7.355,7.355,0,0,0,7.346,7.347H352.5A33.8,33.8,0,0,1,351.776,263.471Z" transform="translate(0 0)" fill="#e35205"/>
  </g>
</svg>
