<?xml version="1.0" encoding="utf-8"?>
<!-- Generator: Adobe Illustrator 24.0.1, SVG Export Plug-In . SVG Version: 6.00 Build 0)  -->
<svg version="1.1" id="Layer_1" xmlns="http://www.w3.org/2000/svg" xmlns:xlink="http://www.w3.org/1999/xlink" x="0px" y="0px"
	 viewBox="0 0 1149 394" style="enable-background:new 0 0 1149 394;" xml:space="preserve">
<style type="text/css">
	.st0{fill:#FFFFFF;}
	.st1{fill:#265D90;}
	.st2{opacity:0.1;fill:#1D4A7E;}
	.st3{fill:#1D4A7E;}
</style>
<path class="st0" d="M1111,217.5c-1.63,7.53-2.44,15.36-5.03,22.55c-11.69,32.39-35.24,52.19-68.42,59.51
	c-34.03,7.51-65-0.39-91.03-23.91c-48.96-44.23-36.67-121.48,23.39-148.89c48.22-22.01,105.94-2.86,130.68,43.44
	c5.23,9.78,8.46,20.23,9.59,31.3c0.14,1.34,0.54,2.66,0.81,3.99C1111,209.49,1111,213.49,1111,217.5z M964.99,210.16
	c-0.02,26.79,21.77,48.81,48.21,48.74c26.28-0.07,48.84-22.42,48.93-48.48c0.09-26.47-22.07-49.32-47.89-49.36
	C987.22,161.03,965.01,183.16,964.99,210.16z"/>
<path class="st0" d="M174.04,38.81c6.55,1.52,13.3,2.5,19.61,4.72c6.91,2.43,13.41,6,20.34,9.19c29.54-24.23,76.06-8.15,89.87,28.99
	c-4.54,0.4-9.01,0.57-13.41,1.22c-8.02,1.19-15.99,2.74-24.01,3.95c-2.13,0.32-4.48,0.4-6.54-0.14
	c-21.02-5.46-41.98-6.41-62.05,2.99c-29.33,13.73-47.86,36.24-53.35,68.67c-0.22,1.31-1.11,2.78-2.15,3.63
	c-26.88,21.88-40.18,50.96-45.22,84.48c-2.36,15.68-1.39,31.12,2.91,46.37c0.13,0.45,0.02,0.96,0.02,1.42
	c-0.31,0.11-0.6,0.32-0.74,0.25c-19.17-10.4-35.61-23.81-46.05-43.36c-10.73-20.08-9.32-40.63-1.37-61.21
	c7.15-18.51,18.48-33.42,37.01-41.86c4.05-1.84,8.41-2.99,12.21-4.3c-1.38-9.45-3.27-18.75-3.98-28.14
	c-1.32-17.58,0.65-34.84,12.45-48.88c12.64-15.04,29.2-24.02,48.78-27.11c1.47-0.23,2.93-0.58,4.39-0.88
	C166.52,38.81,170.28,38.81,174.04,38.81z"/>
<path class="st0" d="M302.8,365.98c-30.2,0-60.41-0.43-90.59,0.17c-17.3,0.35-32.81-4.18-47.42-12.85
	c-25.6-15.19-44.57-35.83-52.63-65.07c-6.75-24.49-3.08-48.31,5.96-71.51c7.52-19.3,19.42-35.41,36.33-47.68
	c1.19-0.87,2.26-2.7,2.36-4.15c2.46-36.3,33.86-67.17,70.2-69.03c11.14-0.57,21.9,1.1,32.56,4.14c2.24,0.64,4.92,0.72,7.17,0.15
	c38.71-9.83,76.08-7.27,110.9,13.32c29.54,17.47,45.7,43.91,49.12,78.11c0.15,1.5,1.54,3.34,2.88,4.2
	c15.19,9.67,28.3,21.42,38.05,36.72c27.88,43.78,10.2,111.06-45.39,130.05c-6.39,2.18-13.47,3.23-20.24,3.29
	C368.96,366.16,335.88,365.98,302.8,365.98z M389.33,216.16c0.28-2.63,0.4-5.01,0.81-7.33c4.56-25.37-7.58-52.32-32.97-65.87
	c-28.86-15.4-58.8-16.21-89.23-5.27c-4.34,1.56-7.76,2-11.82-0.39c-2.96-1.75-6.41-2.81-9.77-3.73
	c-20.94-5.75-36.85-0.15-48.84,18.43c-4.91,7.61-6.32,16.18-4.24,25.19c0.92,3.97,1.56,8,2.35,12.16c-2.4,0.89-4.6,1.76-6.83,2.52
	c-6.43,2.2-12.52,4.95-17.7,9.53c-14.34,12.68-21.5,29.09-25.1,47.44c-3.38,17.23-0.76,33.35,9.05,48.01
	c10,14.94,24.03,24.92,40.57,31.49c2.95,1.17,6.32,1.82,9.5,1.83c65.28,0.1,130.57,0.13,195.85-0.04c4.25-0.01,8.76-1.02,12.71-2.63
	c29.34-11.96,37.66-47.87,26.39-70.56c-8.41-16.94-22.41-27.84-39.1-35.76C397.15,219.36,393.21,217.82,389.33,216.16z"/>
<path class="st0" d="M767.47,231.58c0-28.14,0.07-56.28-0.09-84.42c-0.02-3.61,1.18-4.36,4.48-4.34c23.8,0.11,47.6-0.21,71.4,0.14
	c21.84,0.32,42.37,5.42,59.95,19.23c2.94,2.31,6.81,4.59,7.93,7.71c0.98,2.74-1.18,6.67-2.13,10.02
	c-9.02,31.63-3.55,60.77,15.26,87.51c2.01,2.85,2.2,4.97,0.71,8.01c-11.77,23.97-31.65,37.18-57.16,42.33
	c-9.37,1.89-19.09,2.58-28.67,2.75c-22.29,0.39-44.59,0.05-66.89,0.19c-3.61,0.02-4.92-0.71-4.89-4.72
	C767.57,287.86,767.47,259.72,767.47,231.58z M815.63,188.61c0,29.64,0,58.84,0,89.14c13.53-0.84,26.87-0.68,39.87-2.72
	c15.76-2.47,26.32-12.06,28.92-28.35c1.17-7.34,1.36-14.97,0.94-22.41c-1.04-18.5-10.7-29.73-28.55-33.67
	c-5.22-1.15-10.63-1.71-15.98-1.91C832.48,188.38,824.1,188.61,815.63,188.61z"/>
<path class="st0" d="M634.82,143.11c0,2.05,0,3.53,0,5.02c0,31.41-0.13,62.82,0.12,94.22c0.05,5.91,0.89,12.03,2.61,17.67
	c4.97,16.24,16.82,20.03,29.95,19.6c21.73-0.72,27.55-14.77,29.2-29.73c0.86-7.8,0.79-15.73,0.81-23.6
	c0.09-26.4,0.09-52.81-0.04-79.21c-0.02-3.28,0.86-4.31,4.18-4.27c13.16,0.17,26.32,0.06,39.48,0.08c1.24,0,2.47,0.12,4.24,0.22
	c0,1.54,0,2.87,0,4.2c0,32.91,0.28,65.82-0.09,98.73c-0.26,22.82-6.78,43.42-24.75,58.95c-12.02,10.39-26.28,15.65-41.92,17.52
	c-15.65,1.86-31,0.66-45.79-5.03c-24.92-9.6-39.26-28.05-44.19-53.92c-1.23-6.46-1.62-13.16-1.66-19.75
	c-0.16-32.03-0.01-64.07-0.16-96.1c-0.02-3.72,0.86-4.97,4.75-4.9c12.9,0.23,25.82,0.08,38.73,0.1
	C631.64,142.89,632.99,143.02,634.82,143.11z"/>
<path class="st0" d="M514.35,276.98c22.65,0,44.65,0,66.84,0c0.12,0.89,0.27,1.48,0.27,2.07c0.02,12.76-0.01,25.52,0.05,38.29
	c0.01,2.03-0.27,3.32-2.77,3.32c-30.7-0.06-61.4-0.06-92.11-0.08c-0.35,0-0.69-0.21-1.36-0.43c1.33-4.03,2.83-7.96,3.93-11.99
	c9.71-35.6,3.1-67.69-20.77-96.09c-1.01-1.21-1.77-3.06-1.78-4.62c-0.12-20.27-0.06-40.54-0.1-60.81c-0.01-2.27,0.18-3.81,3.12-3.79
	c14.16,0.11,28.32,0.05,42.48,0.08c0.61,0,1.22,0.2,2.2,0.38C514.35,187.67,514.35,232.03,514.35,276.98z"/>
<path class="st0" d="M364.27,256.96c0,7.16,0,13.62,0,20.09c0,8.76-0.08,17.52,0.05,26.27c0.03,2.27-0.78,3.61-2.59,4.9
	c-18.27,13.08-38.84,17.32-60.85,15.71c-39.18-2.86-74.38-27.56-85.32-66.29c-13.54-47.92,12.15-96.21,60.06-111.85
	c29.5-9.62,58.17-7.97,84.86,9.58c2.84,1.87,3.91,3.89,3.86,7.29c-0.2,13.51-0.08,27.02-0.08,40.53c0,1.21,0,2.41,0,4.35
	c-2.92-2.51-5.2-4.57-7.58-6.5c-13.98-11.34-29.81-17.6-47.99-17.47c-24.58,0.17-44.94,18.44-47.67,42.81
	c-3.08,27.47,15.01,51.09,42.16,54.11c19.32,2.15,36.56-3.86,51.82-15.68C357.96,262.53,360.72,259.98,364.27,256.96z"/>
</svg>
