<?xml version="1.0" encoding="UTF-8"?>
<svg width="338px" height="132px" viewBox="0 0 338 132" version="1.1" xmlns="http://www.w3.org/2000/svg" xmlns:xlink="http://www.w3.org/1999/xlink">
    <!-- Generator: Sketch 63.1 (92452) - https://sketch.com -->
    <title>Cludo_logo_CMYK_strapline</title>
    <desc>Created with Sketch.</desc>
    <g id="Page-1" stroke="none" stroke-width="1" fill="none" fill-rule="evenodd">
        <g id="Cludo_logo_CMYK_strapline">
            <path d="M273.7,48.8 C271.2,64.5 282.6,79.4 299.3,82 C316.1,84.7 331.5,74.1 334,58.3 C336.5,42.6 325.1,27.6 308.3,25 C291.7,22.4 276.2,33.1 273.7,48.8 L273.7,48.8 Z M289,51.2 C290.3,43.1 298.1,37.2 306.3,38.5 C314.5,39.8 320.2,47.9 318.9,56 C317.6,64.1 309.7,69.9 301.5,68.6 C293.3,67.3 287.6,59.7 289,51.2 L289,51.2 Z" id="Shape" fill="#FFFFFF" fill-rule="nonzero"></path>
            <path d="M248.4,46.9 L242,46.9 L242,74.5 L248.5,74.5 C261.8,74.5 263.9,67.9 263.9,60.5 C263.8,53.1 261.7,46.9 248.4,46.9 Z" id="Path"></path>
            <path d="M147.8,32.5 L132.7,32.5 L132.7,53.6 C138.7,60.3 141.6,68.2 141.1,76.7 C140.8,81.1 139.9,85 138.4,88.3 L168.8,88.3 L168.8,74.5 L147.8,74.5 L147.8,32.5 L147.8,32.5 Z" id="Path" fill="#FFFFFF" fill-rule="nonzero"></path>
            <path d="M270.3,48.2 C270.7,45.7 271.4,43.4 272.3,41.2 C267.4,35.8 259.7,32.5 249.3,32.5 L226.8,32.5 L226.8,88.3 L249.3,88.3 C263.7,88.3 272.8,82.3 276.7,72.7 C271.5,65.9 268.9,57.2 270.3,48.2 Z M248.4,74.5 L241.9,74.5 L241.9,46.9 L248.3,46.9 C261.6,46.9 263.8,53.1 263.8,60.5 C263.8,67.9 261.7,74.5 248.4,74.5 Z" id="Shape" fill="#FFFFFF" fill-rule="nonzero"></path>
            <path d="M204.9,62.6 C204.9,72.2 201,75.2 195.1,75.2 C189.2,75.2 185.3,72.2 185.3,62.6 L185.3,32.5 L170.2,32.5 L170.2,64.3 C170.2,81.2 181.6,89.1 195.1,89.1 C208.5,89.1 220,81.2 220,64.3 L220,32.5 L204.9,32.5 L204.9,62.6 Z" id="Path" fill="#FFFFFF" fill-rule="nonzero"></path>
            <path d="M17.6,62.7 C20.2,49.4 26.9,42 32,38.1 C32.8,31.4 36.4,23 46.1,17.3 C50,15 54.4,13.8 59.2,13.8 C63.1,13.8 66.6,14.6 69.2,15.4 C72.2,14.6 76.7,13.7 82.1,13.6 C81.1,11.1 77.2,3.1 68,1.3 C58.6,-0.6 53.7,4.6 53.7,4.6 C53.7,4.6 38.6,-7 22.8,6.8 C12.9,15.4 18.6,32.9 18.6,32.9 C18.6,32.9 5.8,34.2 1.6,51.6 C-2.4,68.3 13.7,77.9 18.3,80.3 C16.8,75.2 16.3,69.3 17.6,62.7 Z" id="Path" fill="#FFFFFF" fill-rule="nonzero"></path>
            <path d="M53.1,60.6 C53.1,77.3 66.8,89.4 83.7,89.4 C90.1,89.4 95.8,87.6 100.9,83.7 L100.9,68 C96.2,72.8 90.4,75.7 83.7,75.7 C75.3,75.7 68.4,69.3 68.4,60.6 C68.4,51.8 75.2,45.4 83.7,45.4 C90.4,45.4 96.2,48.3 100.9,53.1 L100.9,37.4 C95.8,33.5 90,31.7 83.7,31.7 C66.8,31.7 53.1,43.9 53.1,60.6 L53.1,60.6 Z" id="Path" fill="#FFFFFF" fill-rule="nonzero"></path>
            <path d="M112.2,102.4 L49.8,102.4 C49.5,102.4 46.4,102.2 43.2,100.8 C30.8,95.7 17.7,82.9 21.4,63.4 C24,50 31.2,43.3 35.8,40.3 C36,35.1 38,26.6 48,20.6 C51.3,18.7 55,17.7 59.1,17.7 C63.2,17.7 66.8,18.7 69,19.5 C71.8,18.7 76.8,17.5 82.9,17.5 C89.6,17.5 96,18.9 101.8,21.7 C115.8,28.4 119.9,40.6 120.3,48.7 C126.4,52.3 138,61.1 137.1,76.5 C136.2,91.1 126.4,99.2 118.2,101.7 C115.7,102.3 112.9,102.4 112.2,102.4 Z M50.4,91.1 L112.2,91.1 C112.9,91.1 114.2,91 115,90.8 C116.7,90.3 125.3,87.1 125.9,75.8 C126.6,63.4 112.6,57.3 112.5,57.3 L108.6,55.6 L109.1,51.4 C109.2,50.9 110.4,38.3 97.1,32 C92.8,29.9 88.1,28.9 83.1,28.9 C76.2,28.9 71.2,30.9 71.2,30.9 L68.9,31.9 L66.6,30.8 C66.6,30.8 63.2,29.2 59.3,29.2 C57.2,29.2 55.4,29.7 53.9,30.5 C45.8,35.3 47.2,42.4 47.2,42.5 L48.2,47.2 L43.7,48.9 C43.4,49 35.3,52.5 32.7,65.7 C29.5,82.1 44.6,89.2 47.7,90.5 C48.7,90.9 50,91 50.4,91.1 Z" id="Shape" fill="#FFFFFF" fill-rule="nonzero"></path>
            <path d="M11.5,131.6 C9.4,131.6 7.8,131 6.7,129.7 C5.6,128.4 5,126.6 5,124.3 C5,121.9 5.6,120.1 6.7,118.8 C7.8,117.5 9.5,116.8 11.6,116.8 C12.3,116.8 13,116.9 13.7,117 C14.4,117.1 14.9,117.3 15.3,117.5 L14.6,119.3 C14.1,119.1 13.6,119 13,118.8 C12.4,118.6 11.9,118.6 11.5,118.6 C8.6,118.6 7.1,120.5 7.1,124.2 C7.1,126 7.5,127.3 8.2,128.2 C8.9,129.1 10,129.6 11.3,129.6 C12.5,129.6 13.7,129.3 15,128.8 L15,130.7 C14.2,131.3 13,131.6 11.5,131.6 Z" id="Path" fill="#FFFFFF" fill-rule="nonzero"></path>
            <polygon id="Path" fill="#FFFFFF" fill-rule="nonzero" points="20 131.3 17.8 131.3 17.8 111 20 111"></polygon>
            <path d="M26,117 L26,126.3 C26,127.5 26.3,128.3 26.8,128.9 C27.3,129.5 28.2,129.8 29.3,129.8 C30.8,129.8 31.9,129.4 32.6,128.6 C33.3,127.8 33.6,126.4 33.6,124.6 L33.6,117 L35.8,117 L35.8,131.3 L34,131.3 L33.7,129.4 L33.6,129.4 C33.2,130.1 32.5,130.6 31.8,131 C31,131.4 30.1,131.6 29.1,131.6 C27.4,131.6 26.1,131.2 25.2,130.4 C24.3,129.6 23.9,128.3 23.9,126.4 L23.9,117 L26,117 Z" id="Path" fill="#FFFFFF" fill-rule="nonzero"></path>
            <path d="M45.8,131.6 C43.7,131.6 42,131 40.8,129.7 C39.6,128.4 39,126.6 39,124.3 C39,122 39.6,120.2 40.7,118.8 C41.8,117.4 43.4,116.8 45.3,116.8 C47.1,116.8 48.5,117.4 49.5,118.6 C50.5,119.8 51.1,121.3 51.1,123.3 L51.1,124.7 L41.3,124.7 C41.3,126.4 41.8,127.7 42.6,128.5 C43.4,129.4 44.5,129.8 46,129.8 C47.5,129.8 49.1,129.5 50.6,128.8 L50.6,130.7 C49.8,131 49.1,131.3 48.4,131.4 C47.5,131.5 46.7,131.6 45.8,131.6 Z M45.2,118.6 C44.1,118.6 43.1,119 42.5,119.7 C41.8,120.4 41.4,121.5 41.3,122.8 L48.8,122.8 C48.8,121.4 48.5,120.4 47.9,119.7 C47.3,119 46.3,118.6 45.2,118.6 Z" id="Shape" fill="#FFFFFF" fill-rule="nonzero"></path>
            <path d="M63.8,129.4 L63.7,129.4 C62.7,130.9 61.2,131.6 59.2,131.6 C57.3,131.6 55.9,131 54.8,129.7 C53.7,128.4 53.2,126.6 53.2,124.3 C53.2,121.9 53.7,120.1 54.8,118.8 C55.9,117.5 57.3,116.8 59.2,116.8 C61.1,116.8 62.6,117.5 63.7,118.9 L63.9,118.9 L63.8,117.9 L63.7,116.9 L63.7,111 L65.9,111 L65.9,131.3 L64,131.3 L63.8,129.4 Z M59.4,129.8 C60.9,129.8 61.9,129.4 62.6,128.6 C63.3,127.8 63.6,126.5 63.6,124.7 L63.6,124.2 C63.6,122.2 63.3,120.7 62.6,119.9 C61.9,119 60.9,118.6 59.4,118.6 C58.1,118.6 57.2,119.1 56.5,120.1 C55.8,121.1 55.5,122.5 55.5,124.3 C55.5,126.1 55.8,127.5 56.5,128.4 C57.2,129.3 58.1,129.8 59.4,129.8 Z" id="Shape" fill="#FFFFFF" fill-rule="nonzero"></path>
            <polygon id="Path" fill="#FFFFFF" fill-rule="nonzero" points="68.6 125.2 68.6 123.2 75 123.2 75 125.2"></polygon>
            <path d="M77.5,113.2 C77.5,112.7 77.6,112.3 77.9,112.1 C78.1,111.9 78.4,111.8 78.8,111.8 C79.1,111.8 79.4,111.9 79.7,112.2 C80,112.4 80.1,112.8 80.1,113.3 C80.1,113.8 80,114.1 79.7,114.4 C79.4,114.6 79.1,114.8 78.8,114.8 C78.4,114.8 78.1,114.7 77.9,114.4 C77.6,114 77.5,113.6 77.5,113.2 Z M79.9,131.3 L77.7,131.3 L77.7,117 L79.9,117 L79.9,131.3 Z" id="Shape" fill="#FFFFFF" fill-rule="nonzero"></path>
            <path d="M93.6,131.3 L93.6,122.1 C93.6,120.9 93.3,120.1 92.8,119.5 C92.3,118.9 91.4,118.6 90.3,118.6 C88.8,118.6 87.7,119 87,119.8 C86.3,120.6 86,121.9 86,123.8 L86,131.3 L83.8,131.3 L83.8,117 L85.6,117 L86,119 L86.1,119 C86.5,118.3 87.2,117.8 88,117.4 C88.8,117 89.7,116.8 90.7,116.8 C92.4,116.8 93.7,117.2 94.6,118 C95.5,118.8 95.9,120.2 95.9,122 L95.9,131.3 L93.6,131.3 Z" id="Path" fill="#FFFFFF" fill-rule="nonzero"></path>
            <path d="M116.9,126.3 C116.9,128 116.3,129.3 115.1,130.2 C113.9,131.1 112.2,131.6 110.1,131.6 C107.8,131.6 106.1,131.3 104.9,130.7 L104.9,128.6 C105.7,128.9 106.5,129.2 107.5,129.4 C108.4,129.6 109.3,129.7 110.2,129.7 C111.7,129.7 112.8,129.4 113.5,128.9 C114.2,128.3 114.6,127.6 114.6,126.6 C114.6,125.9 114.5,125.4 114.2,125 C113.9,124.6 113.5,124.2 112.9,123.8 C112.3,123.4 111.3,123 110.1,122.6 C108.3,122 107.1,121.2 106.3,120.3 C105.5,119.4 105.2,118.3 105.2,116.9 C105.2,115.4 105.8,114.3 106.9,113.4 C108,112.5 109.5,112.1 111.3,112.1 C113.2,112.1 114.9,112.4 116.5,113.1 L115.8,115 C114.2,114.3 112.7,114 111.2,114 C110,114 109.1,114.3 108.4,114.8 C107.7,115.3 107.4,116 107.4,116.9 C107.4,117.6 107.5,118.1 107.8,118.5 C108,118.9 108.5,119.3 109,119.7 C109.6,120.1 110.5,120.4 111.7,120.9 C113.7,121.6 115.1,122.4 115.8,123.2 C116.6,123.9 116.9,124.9 116.9,126.3 Z" id="Path" fill="#FFFFFF" fill-rule="nonzero"></path>
            <path d="M128.7,131.3 L128.3,129.3 L128.2,129.3 C127.5,130.2 126.8,130.8 126.1,131.1 C125.4,131.4 124.5,131.6 123.4,131.6 C122,131.6 120.9,131.2 120.1,130.5 C119.3,129.8 118.9,128.7 118.9,127.4 C118.9,124.5 121.2,123 125.8,122.9 L128.2,122.8 L128.2,121.9 C128.2,120.8 128,120 127.5,119.4 C127,118.8 126.2,118.6 125.2,118.6 C124,118.6 122.7,119 121.2,119.7 L120.5,118 C121.2,117.6 122,117.3 122.8,117.1 C123.6,116.9 124.5,116.8 125.3,116.8 C127,116.8 128.3,117.2 129.1,117.9 C129.9,118.6 130.3,119.9 130.3,121.5 L130.3,131.3 L128.7,131.3 Z M123.8,129.8 C125.1,129.8 126.2,129.4 127,128.7 C127.8,128 128.2,126.9 128.2,125.6 L128.2,124.3 L126,124.4 C124.3,124.5 123,124.7 122.3,125.2 C121.5,125.7 121.2,126.4 121.2,127.4 C121.2,128.2 121.4,128.8 121.9,129.2 C122.3,129.6 122.9,129.8 123.8,129.8 Z" id="Shape" fill="#FFFFFF" fill-rule="nonzero"></path>
            <polygon id="Path" fill="#FFFFFF" fill-rule="nonzero" points="136.2 131.3 134 131.3 134 111 136.2 111"></polygon>
            <path d="M146.2,131.6 C144.1,131.6 142.4,131 141.2,129.7 C140,128.4 139.4,126.6 139.4,124.3 C139.4,122 140,120.2 141.1,118.8 C142.2,117.4 143.8,116.8 145.7,116.8 C147.5,116.8 148.9,117.4 149.9,118.6 C150.9,119.8 151.5,121.3 151.5,123.3 L151.5,124.7 L141.7,124.7 C141.7,126.4 142.2,127.7 143,128.5 C143.8,129.4 144.9,129.8 146.4,129.8 C147.9,129.8 149.5,129.5 151,128.8 L151,130.7 C150.2,131 149.5,131.3 148.8,131.4 C148,131.5 147.2,131.6 146.2,131.6 Z M145.6,118.6 C144.5,118.6 143.5,119 142.9,119.7 C142.2,120.4 141.8,121.5 141.7,122.8 L149.2,122.8 C149.2,121.4 148.9,120.4 148.3,119.7 C147.7,119 146.7,118.6 145.6,118.6 Z" id="Shape" fill="#FFFFFF" fill-rule="nonzero"></path>
            <path d="M163.7,127.4 C163.7,128.7 163.2,129.8 162.2,130.5 C161.2,131.2 159.8,131.6 158,131.6 C156.1,131.6 154.6,131.3 153.6,130.7 L153.6,128.7 C154.3,129 155,129.3 155.8,129.5 C156.6,129.7 157.3,129.8 158.1,129.8 C159.2,129.8 160.1,129.6 160.7,129.3 C161.3,128.9 161.6,128.4 161.6,127.7 C161.6,127.1 161.4,126.7 160.9,126.3 C160.4,125.9 159.5,125.4 158.1,124.9 C156.8,124.4 155.8,124 155.3,123.6 C154.7,123.2 154.3,122.8 154,122.3 C153.7,121.8 153.6,121.3 153.6,120.6 C153.6,119.4 154.1,118.5 155,117.8 C155.9,117.1 157.2,116.8 158.9,116.8 C160.4,116.8 161.9,117.1 163.4,117.7 L162.6,119.5 C161.2,118.9 159.9,118.6 158.7,118.6 C157.7,118.6 156.9,118.8 156.4,119.1 C155.9,119.4 155.6,119.9 155.6,120.4 C155.6,120.8 155.7,121.1 155.9,121.4 C156.1,121.7 156.4,121.9 156.8,122.2 C157.2,122.4 158.1,122.8 159.3,123.3 C161,123.9 162.1,124.5 162.7,125.2 C163.3,125.9 163.7,126.5 163.7,127.4 Z" id="Path" fill="#FFFFFF" fill-rule="nonzero"></path>
            <path d="M173,118.7 L169.4,118.7 L169.4,131.3 L167.2,131.3 L167.2,118.7 L164.6,118.7 L164.6,117.7 L167.2,116.9 L167.2,116.1 C167.2,112.6 168.7,110.8 171.8,110.8 C172.6,110.8 173.4,111 174.5,111.3 L173.9,113 C173.1,112.7 172.4,112.6 171.8,112.6 C171,112.6 170.4,112.9 170,113.4 C169.6,113.9 169.4,114.8 169.4,116 L169.4,116.9 L173,116.9 L173,118.7 Z" id="Path" fill="#FFFFFF" fill-rule="nonzero"></path>
            <path d="M187.3,124.2 C187.3,126.5 186.7,128.3 185.5,129.7 C184.3,131.1 182.7,131.7 180.6,131.7 C179.3,131.7 178.2,131.4 177.2,130.8 C176.2,130.2 175.4,129.3 174.9,128.2 C174.4,127.1 174.1,125.8 174.1,124.3 C174.1,122 174.7,120.2 175.8,118.9 C177,117.6 178.6,117 180.7,117 C182.7,117 184.3,117.7 185.5,119 C186.7,120.1 187.3,121.9 187.3,124.2 Z M176.4,124.2 C176.4,126 176.8,127.4 177.5,128.4 C178.2,129.4 179.3,129.8 180.7,129.8 C182.1,129.8 183.2,129.3 183.9,128.4 C184.6,127.4 185,126.1 185,124.2 C185,122.4 184.6,121 183.9,120.1 C183.2,119.2 182.1,118.7 180.6,118.7 C179.2,118.7 178.1,119.2 177.4,120.1 C176.8,120.9 176.4,122.3 176.4,124.2 Z" id="Shape" fill="#FFFFFF" fill-rule="nonzero"></path>
            <path d="M197,116.8 C197.6,116.8 198.2,116.9 198.7,117 L198.4,119 C197.8,118.9 197.3,118.8 196.8,118.8 C195.6,118.8 194.7,119.3 193.8,120.2 C193,121.1 192.6,122.3 192.6,123.7 L192.6,131.4 L190.4,131.4 L190.4,117 L192.2,117 L192.4,119.6 L192.5,119.6 C193,118.7 193.7,118 194.4,117.4 C195.2,117 196.1,116.8 197,116.8 Z" id="Path" fill="#FFFFFF" fill-rule="nonzero"></path>
            <path d="M206.4,131.6 C204.3,131.6 202.7,131 201.6,129.7 C200.5,128.4 199.9,126.6 199.9,124.3 C199.9,121.9 200.5,120.1 201.6,118.8 C202.7,117.5 204.4,116.8 206.5,116.8 C207.2,116.8 207.9,116.9 208.6,117 C209.3,117.1 209.8,117.3 210.2,117.5 L209.5,119.3 C209,119.1 208.5,119 207.9,118.8 C207.3,118.7 206.8,118.6 206.4,118.6 C203.5,118.6 202,120.5 202,124.2 C202,126 202.4,127.3 203.1,128.2 C203.8,129.1 204.9,129.6 206.2,129.6 C207.4,129.6 208.6,129.3 209.9,128.8 L209.9,130.7 C209,131.3 207.8,131.6 206.4,131.6 Z" id="Path" fill="#FFFFFF" fill-rule="nonzero"></path>
            <path d="M218.8,131.6 C216.7,131.6 215,131 213.8,129.7 C212.6,128.4 212,126.6 212,124.3 C212,122 212.6,120.2 213.7,118.8 C214.8,117.4 216.4,116.8 218.3,116.8 C220.1,116.8 221.5,117.4 222.5,118.6 C223.5,119.8 224.1,121.3 224.1,123.3 L224.1,124.7 L214.3,124.7 C214.3,126.4 214.8,127.7 215.6,128.5 C216.4,129.4 217.5,129.8 219,129.8 C220.5,129.8 222.1,129.5 223.6,128.8 L223.6,130.7 C222.8,131 222.1,131.3 221.4,131.4 C220.5,131.5 219.7,131.6 218.8,131.6 Z M218.2,118.6 C217.1,118.6 216.1,119 215.5,119.7 C214.8,120.4 214.4,121.5 214.3,122.8 L221.8,122.8 C221.8,121.4 221.5,120.4 220.9,119.7 C220.3,119 219.3,118.6 218.2,118.6 Z" id="Shape" fill="#FFFFFF" fill-rule="nonzero"></path>
            <path d="M242.5,127.4 C242.5,128.7 242,129.8 241,130.5 C240,131.2 238.6,131.6 236.8,131.6 C234.9,131.6 233.4,131.3 232.4,130.7 L232.4,128.7 C233.1,129 233.8,129.3 234.6,129.5 C235.4,129.7 236.1,129.8 236.9,129.8 C238,129.8 238.9,129.6 239.5,129.3 C240.1,128.9 240.4,128.4 240.4,127.7 C240.4,127.1 240.2,126.7 239.7,126.3 C239.2,125.9 238.3,125.4 236.9,124.9 C235.6,124.4 234.6,124 234.1,123.6 C233.5,123.2 233.1,122.8 232.8,122.3 C232.5,121.8 232.4,121.3 232.4,120.6 C232.4,119.4 232.9,118.5 233.8,117.8 C234.7,117.1 236,116.8 237.7,116.8 C239.2,116.8 240.7,117.1 242.2,117.7 L241.4,119.5 C240,118.9 238.7,118.6 237.5,118.6 C236.5,118.6 235.7,118.8 235.2,119.1 C234.7,119.4 234.4,119.9 234.4,120.4 C234.4,120.8 234.5,121.1 234.7,121.4 C234.9,121.7 235.2,121.9 235.6,122.2 C236,122.4 236.9,122.8 238.1,123.3 C239.8,123.9 240.9,124.5 241.5,125.2 C242.2,125.7 242.5,126.5 242.5,127.4 Z" id="Path" fill="#FFFFFF" fill-rule="nonzero"></path>
            <path d="M257.7,124.2 C257.7,126.5 257.1,128.3 255.9,129.7 C254.7,131 253.1,131.7 251,131.7 C249.7,131.7 248.6,131.4 247.6,130.8 C246.6,130.2 245.8,129.3 245.3,128.2 C244.8,127.1 244.5,125.8 244.5,124.3 C244.5,122 245.1,120.2 246.2,118.9 C247.4,117.6 249,117 251,117 C253,117 254.6,117.7 255.8,119 C257.1,120.1 257.7,121.9 257.7,124.2 Z M246.8,124.2 C246.8,126 247.2,127.4 247.9,128.4 C248.6,129.4 249.7,129.8 251.1,129.8 C252.5,129.8 253.6,129.3 254.3,128.4 C255,127.5 255.4,126.1 255.4,124.2 C255.4,122.4 255,121 254.3,120.1 C253.6,119.2 252.5,118.7 251,118.7 C249.6,118.7 248.5,119.2 247.8,120.1 C247.2,120.9 246.8,122.3 246.8,124.2 Z" id="Shape" fill="#FFFFFF" fill-rule="nonzero"></path>
            <polygon id="Path" fill="#FFFFFF" fill-rule="nonzero" points="263 131.3 260.8 131.3 260.8 111 263 111"></polygon>
            <path d="M269,117 L269,126.3 C269,127.5 269.3,128.3 269.8,128.9 C270.3,129.5 271.2,129.8 272.3,129.8 C273.8,129.8 274.9,129.4 275.6,128.6 C276.3,127.8 276.6,126.4 276.6,124.6 L276.6,117 L278.8,117 L278.8,131.3 L277,131.3 L276.7,129.4 L276.6,129.4 C276.2,130.1 275.5,130.6 274.8,131 C274,131.4 273.1,131.6 272.1,131.6 C270.4,131.6 269.1,131.2 268.2,130.4 C267.3,129.6 266.9,128.3 266.9,126.4 L266.9,117 L269,117 Z" id="Path" fill="#FFFFFF" fill-rule="nonzero"></path>
            <path d="M287.3,129.8 C287.7,129.8 288.1,129.8 288.4,129.7 C288.7,129.6 289,129.6 289.2,129.5 L289.2,131.2 C289,131.3 288.6,131.4 288.2,131.5 C287.7,131.6 287.3,131.6 287,131.6 C284.2,131.6 282.9,130.1 282.9,127.2 L282.9,118.7 L280.9,118.7 L280.9,117.7 L282.9,116.8 L283.8,113.7 L285.1,113.7 L285.1,117 L289.2,117 L289.2,118.7 L285,118.7 L285,127.1 C285,128 285.2,128.6 285.6,129.1 C286.1,129.6 286.6,129.8 287.3,129.8 Z" id="Path" fill="#FFFFFF" fill-rule="nonzero"></path>
            <path d="M291.3,113.2 C291.3,112.7 291.4,112.3 291.7,112.1 C291.9,111.9 292.2,111.8 292.6,111.8 C292.9,111.8 293.2,111.9 293.5,112.2 C293.8,112.4 293.9,112.8 293.9,113.3 C293.9,113.8 293.8,114.1 293.5,114.4 C293.2,114.6 292.9,114.8 292.6,114.8 C292.2,114.8 291.9,114.7 291.7,114.4 C291.4,114 291.3,113.6 291.3,113.2 Z M293.6,131.3 L291.4,131.3 L291.4,117 L293.6,117 L293.6,131.3 Z" id="Shape" fill="#FFFFFF" fill-rule="nonzero"></path>
            <path d="M309.9,124.2 C309.9,126.5 309.3,128.3 308.1,129.7 C306.9,131 305.3,131.7 303.2,131.7 C301.9,131.7 300.8,131.4 299.8,130.8 C298.8,130.2 298,129.3 297.5,128.2 C297,127.1 296.7,125.8 296.7,124.3 C296.7,122 297.3,120.2 298.4,118.9 C299.6,117.6 301.2,117 303.2,117 C305.2,117 306.8,117.7 308,119 C309.3,120.1 309.9,121.9 309.9,124.2 Z M299,124.2 C299,126 299.4,127.4 300.1,128.4 C300.8,129.4 301.9,129.8 303.3,129.8 C304.7,129.8 305.8,129.3 306.5,128.4 C307.2,127.5 307.6,126.1 307.6,124.2 C307.6,122.4 307.2,121 306.5,120.1 C305.8,119.2 304.7,118.7 303.2,118.7 C301.8,118.7 300.7,119.2 300,120.1 C299.4,120.9 299,122.3 299,124.2 Z" id="Shape" fill="#FFFFFF" fill-rule="nonzero"></path>
            <path d="M322.8,131.3 L322.8,122.1 C322.8,120.9 322.5,120.1 322,119.5 C321.5,118.9 320.6,118.6 319.5,118.6 C318,118.6 316.9,119 316.2,119.8 C315.5,120.6 315.2,121.9 315.2,123.8 L315.2,131.3 L313,131.3 L313,117 L314.8,117 L315.2,119 L315.3,119 C315.7,118.3 316.4,117.8 317.2,117.4 C318,117 318.9,116.8 319.9,116.8 C321.6,116.8 322.9,117.2 323.8,118 C324.7,118.8 325.1,120.2 325.1,122 L325.1,131.3 L322.8,131.3 Z" id="Path" fill="#FFFFFF" fill-rule="nonzero"></path>
            <path d="M338,127.4 C338,128.7 337.5,129.8 336.5,130.5 C335.5,131.2 334.1,131.6 332.3,131.6 C330.4,131.6 328.9,131.3 327.9,130.7 L327.9,128.7 C328.6,129 329.3,129.3 330.1,129.5 C330.9,129.7 331.6,129.8 332.4,129.8 C333.5,129.8 334.4,129.6 335,129.3 C335.6,128.9 335.9,128.4 335.9,127.7 C335.9,127.1 335.7,126.7 335.2,126.3 C334.7,125.9 333.8,125.4 332.4,124.9 C331.1,124.4 330.1,124 329.6,123.6 C329,123.2 328.6,122.8 328.3,122.3 C328,121.8 327.9,121.3 327.9,120.6 C327.9,119.4 328.4,118.5 329.3,117.8 C330.2,117.1 331.5,116.8 333.2,116.8 C334.7,116.8 336.2,117.1 337.7,117.7 L336.9,119.5 C335.5,118.9 334.2,118.6 333,118.6 C332,118.6 331.2,118.8 330.7,119.1 C330.2,119.4 329.9,119.9 329.9,120.4 C329.9,120.8 330,121.1 330.2,121.4 C330.4,121.7 330.7,121.9 331.1,122.2 C331.5,122.4 332.4,122.8 333.6,123.3 C335.3,123.9 336.4,124.5 337,125.2 C337.7,125.7 338,126.5 338,127.4 Z" id="Path" fill="#FFFFFF" fill-rule="nonzero"></path>
        </g>
    </g>
</svg>